<?xml version="1.0" encoding="utf-8"?>
<!-- Generator: Adobe Illustrator 16.0.0, SVG Export Plug-In . SVG Version: 6.00 Build 0)  -->
<!DOCTYPE svg PUBLIC "-//W3C//DTD SVG 1.1//EN" "http://www.w3.org/Graphics/SVG/1.1/DTD/svg11.dtd">
<svg version="1.1" id="Layer_1" xmlns="http://www.w3.org/2000/svg" xmlns:xlink="http://www.w3.org/1999/xlink" x="0px" y="0px"
	 width="97.281px" height="125px" viewBox="0 0 97.281 125" enable-background="new 0 0 97.281 125" xml:space="preserve">
<rect x="24.536" y="38.396" fill="#BAD657" width="48.208" height="48.208"/>
<path d="M85.163,64.693c-0.972,0.046-1.943,0.101-2.915,0.149c1.789-2.05,3.514-4.143,5.2-6.204c0.654-0.8-1.947-2.549-2.677-1.657
	c-2.244,2.745-4.537,5.477-6.955,8.088c-5.267,0.28-10.532,0.599-15.798,0.946c2.306-0.763,4.363-2.411,5.608-4.624
	c1.848-3.283,2.57-9.386-1.622-11.247c-2.673-1.186-4.713,0.77-6.103,2.855c-1.989,2.985-3.409,6.852-4.053,10.787
	c-0.959-0.606-1.611-1.622-2.014-2.814c0.147-1.92-0.054-3.914-0.418-5.451c-0.176-0.736-2.583-2.259-2.767-0.999
	c-0.287,1.979-0.159,4.037,0.473,5.896c-0.248,1.986-1.057,3.787-2.89,4.744c-1.644,0.858-2.165-1.204-2.253-3.561
	c0.423-1.681,0.492-3.506,0.3-5.083c-0.107-0.876-2.584-2.575-2.802-1.242c-0.218,1.331-0.43,3.182-0.368,5.041
	c-0.758,2.643-2.471,4.902-5.347,5.749c-0.087,0.025,1.223-5.536,1.356-5.897c0.211-0.572,0.441-1.139,0.681-1.702
	c0.31-0.642,0.607-1.287,0.88-1.938c0.436-1.042-2.214-2.61-2.677-1.657c-0.421,0.867-0.995,1.998-1.532,3.239
	c-0.798,1.508-1.716,2.964-2.766,4.306c0.756-6.55,1.687-13.077,2.793-19.561c3.448-9.158,5.136-19.07,6.222-28.65
	c0.113-1.001-2.473-2.467-2.802-1.243c-2.468,9.198-4.483,18.579-6.117,28.056c-1.398,3.757-3.078,7.41-5.129,10.9
	c-4.583,7.798-11.192,13.84-18.668,18.799c-1.115,0.739,1.455,2.107,2.127,2.03c5.92-0.68,11.85-1.301,17.785-1.876
	c-1.212,13.355-1.775,26.743-1.802,39.947c-0.002,1.073,2.799,2.369,2.801,1.243c0.028-13.706,0.631-27.608,1.94-41.467
	c7.531-0.708,15.07-1.334,22.615-1.888c0.019,1.503,0.162,2.967,0.46,4.338c1.785,8.231,9.987,6.144,15.057,2.482
	c3.341-2.413,6.359-5.307,9.191-8.379c2.292-0.122,4.585-0.244,6.879-0.354C88.391,66.735,86.139,64.646,85.163,64.693z
	 M62.014,55.598c0.287-0.526,3.25-4.837,3.896-3.365c1.906,4.335-1.702,10.482-5.88,11.813c-0.376,0.12-0.731,0.204-1.071,0.26
	c0.064-0.335,0.123-0.616,0.168-0.823C59.723,60.746,60.668,58.059,62.014,55.598z M54.088,64.7
	c0.487,0.383,0.998,0.687,1.518,0.942c-0.026,0.272-0.052,0.545-0.07,0.817c-1.417,0.101-2.833,0.208-4.249,0.315
	c0.926-0.643,1.558-1.649,1.969-2.832C53.515,64.208,53.788,64.464,54.088,64.7z M46.503,67.142
	c-1.701,0.135-3.402,0.278-5.103,0.422c1.112-0.609,2.115-1.516,2.855-2.422C44.772,66.035,45.496,66.746,46.503,67.142z
	 M16.13,69.996c6.032-4.531,11.236-9.861,15.22-16.417c0.237-0.389,0.456-0.788,0.683-1.183c-0.749,5.375-1.386,10.769-1.907,16.173
	C25.457,69.011,20.792,69.49,16.13,69.996z M33.167,67.433c0.01-0.007,0.021-0.01,0.031-0.018c0.696-0.595,1.341-1.242,1.957-1.918
	c0.267,0.904,0.808,1.683,1.728,2.25c0.11,0.068,0.223,0.117,0.334,0.172c-1.381,0.122-2.762,0.252-4.143,0.38
	C33.104,68.01,33.138,67.722,33.167,67.433z M69.793,72.684c-2.372,1.919-5.686,4.456-8.934,4.249
	c-2.689-0.172-2.863-4.623-2.505-8.437c5.741-0.406,11.484-0.768,17.228-1.093C73.742,69.262,71.825,71.038,69.793,72.684z"/>
</svg>
