<?xml version="1.0" encoding="utf-8"?>
<!-- Generator: Adobe Illustrator 16.0.0, SVG Export Plug-In . SVG Version: 6.00 Build 0)  -->
<!DOCTYPE svg PUBLIC "-//W3C//DTD SVG 1.1//EN" "http://www.w3.org/Graphics/SVG/1.1/DTD/svg11.dtd">
<svg version="1.1" id="Layer_1" xmlns="http://www.w3.org/2000/svg" xmlns:xlink="http://www.w3.org/1999/xlink" x="0px" y="0px"
	 width="98.869px" height="127.042px" viewBox="0 0 98.869 127.042" enable-background="new 0 0 98.869 127.042"
	 xml:space="preserve">
<rect x="11.478" y="26.292" fill="#BADA55" width="74.458" height="74.458"/>
<path d="M93.698,66.305c-1.178,0.061-2.354,0.13-3.532,0.192c2.169-2.604,4.26-5.263,6.304-7.884
	c0.793-1.014-2.361-3.236-3.244-2.104c-2.723,3.486-5.5,6.957-8.431,10.274c-6.385,0.355-12.765,0.76-19.146,1.202
	c2.793-0.97,5.285-3.063,6.797-5.874c2.24-4.171,3.115-11.925-1.967-14.288c-3.239-1.508-5.713,0.978-7.396,3.627
	c-2.41,3.792-4.132,8.704-4.911,13.703c-1.163-0.771-1.955-2.059-2.441-3.575c0.181-2.438-0.063-4.971-0.508-6.926
	c-0.211-0.936-3.129-2.868-3.351-1.268c-0.351,2.514-0.194,5.127,0.571,7.488c-0.301,2.523-1.279,4.813-3.502,6.027
	c-1.992,1.091-2.623-1.528-2.73-4.521c0.515-2.138,0.597-4.455,0.363-6.459c-0.13-1.112-3.13-3.271-3.396-1.58
	c-0.264,1.692-0.521,4.045-0.446,6.406c-0.918,3.356-2.994,6.228-6.479,7.304c-0.105,0.028,1.482-7.033,1.645-7.494
	c0.256-0.727,0.535-1.446,0.823-2.162c0.376-0.814,0.736-1.635,1.067-2.461c0.527-1.325-2.683-3.314-3.244-2.105
	c-0.512,1.103-1.207,2.539-1.857,4.115c-0.968,1.918-2.079,3.766-3.352,5.473c0.916-8.322,2.044-16.615,3.384-24.853
	c4.179-11.634,6.225-24.228,7.541-36.397c0.139-1.271-2.997-3.134-3.396-1.578c-2.99,11.686-5.434,23.604-7.413,35.642
	c-1.695,4.776-3.731,9.416-6.217,13.848C19.681,59.987,11.67,67.667,2.609,73.964c-1.351,0.938,1.763,2.679,2.579,2.58
	c7.174-0.864,14.36-1.651,21.552-2.385c-1.468,16.967-2.15,33.976-2.184,50.75c-0.002,1.362,3.395,3.012,3.396,1.578
	c0.034-17.41,0.767-35.072,2.352-52.68c9.127-0.898,18.266-1.693,27.41-2.396c0.021,1.908,0.196,3.769,0.557,5.512
	c2.164,10.455,12.104,7.805,18.248,3.152c4.049-3.065,7.709-6.742,11.14-10.645c2.778-0.155,5.558-0.313,8.337-0.448
	C97.608,68.903,94.882,66.248,93.698,66.305z M65.642,54.753c0.35-0.668,3.938-6.145,4.721-4.274
	c2.312,5.508-2.063,13.315-7.125,15.006c-0.457,0.154-0.887,0.263-1.299,0.331c0.078-0.427,0.149-0.781,0.203-1.046
	C62.864,61.294,64.01,57.878,65.642,54.753z M56.035,66.317c0.591,0.486,1.21,0.872,1.839,1.197
	c-0.032,0.345-0.063,0.69-0.085,1.037c-1.718,0.129-3.435,0.267-5.149,0.399c1.121-0.815,1.887-2.095,2.385-3.598
	C55.34,65.691,55.672,66.016,56.035,66.317z M46.842,69.417c-2.063,0.172-4.123,0.354-6.184,0.537
	c1.349-0.773,2.563-1.927,3.461-3.076C44.744,68.012,45.621,68.917,46.842,69.417z M10.032,73.044
	c7.31-5.756,13.618-12.527,18.446-20.857c0.286-0.493,0.552-1.002,0.828-1.503c-0.906,6.828-1.68,13.681-2.312,20.546
	C21.333,71.792,15.681,72.402,10.032,73.044z M30.68,69.789c0.012-0.01,0.026-0.014,0.037-0.021
	c0.845-0.756,1.627-1.578,2.372-2.438c0.324,1.146,0.979,2.139,2.096,2.857c0.133,0.087,0.27,0.148,0.404,0.22
	c-1.674,0.153-3.347,0.319-5.021,0.48C30.604,70.521,30.645,70.155,30.68,69.789z M75.069,76.458
	c-2.875,2.438-6.891,5.66-10.827,5.396c-3.261-0.218-3.47-5.873-3.036-10.718c6.96-0.517,13.919-0.978,20.88-1.39
	C79.856,72.111,77.534,74.369,75.069,76.458z"/>
</svg>
