<?xml version="1.0" encoding="utf-8"?>
<!-- Generator: Adobe Illustrator 16.0.0, SVG Export Plug-In . SVG Version: 6.00 Build 0)  -->
<!DOCTYPE svg PUBLIC "-//W3C//DTD SVG 1.1//EN" "http://www.w3.org/Graphics/SVG/1.1/DTD/svg11.dtd">
<svg version="1.1" id="Layer_1" xmlns="http://www.w3.org/2000/svg" xmlns:xlink="http://www.w3.org/1999/xlink" x="0px" y="0px"
	 width="355.156px" height="370.676px" viewBox="0 85.676 355.156 370.676" enable-background="new 0 85.676 355.156 370.676"
	 xml:space="preserve">
<rect x="67.577" y="118.177" fill="#BAD657" width="220" height="220"/>
<path d="M344.25,238.185c-4.434,0.209-8.867,0.459-13.301,0.685c8.164-9.355,16.035-18.906,23.729-28.313
	c2.984-3.647-8.887-11.633-12.215-7.563c-10.242,12.524-20.707,24.993-31.742,36.911c-24.034,1.281-48.063,2.73-72.092,4.318
	c10.521-3.482,19.91-11.004,25.593-21.102c8.432-14.98,11.731-42.834-7.4-51.326c-12.198-5.412-21.51,3.512-27.852,13.031
	c-9.076,13.622-15.556,31.27-18.494,49.225c-4.375-2.764-7.353-7.4-9.188-12.842c0.674-8.763-0.244-17.859-1.91-24.875
	c-0.801-3.359-11.787-10.31-12.621-4.558c-1.313,9.029-0.729,18.422,2.154,26.904c-1.133,9.063-4.82,17.285-13.186,21.65
	c-7.504,3.918-9.879-5.496-10.281-16.25c1.93-7.67,2.244-16,1.367-23.195c-0.488-3.998-11.791-11.75-12.785-5.668
	c-0.994,6.074-1.963,14.521-1.682,23.002c-3.459,12.061-11.273,22.371-24.398,26.234c-0.396,0.114,5.58-25.263,6.189-26.914
	c0.965-2.609,2.014-5.199,3.105-7.767c1.416-2.93,2.773-5.871,4.018-8.842c1.988-4.758-10.102-11.912-12.217-7.563
	c-1.924,3.954-4.541,9.118-6.992,14.782c-3.643,6.884-7.83,13.525-12.621,19.65c3.451-29.894,7.697-59.678,12.746-89.266
	c15.734-41.791,23.438-87.025,28.393-130.746c0.518-4.57-11.285-11.256-12.785-5.67c-11.266,41.977-20.459,84.784-27.916,128.032
	c-6.383,17.148-14.047,33.816-23.408,49.744c-20.914,35.59-51.078,63.163-85.195,85.793c-5.086,3.373,6.639,9.617,9.707,9.265
	c27.018-3.103,54.076-5.937,81.16-8.56c-5.529,60.947-8.1,122.041-8.225,182.301c-0.01,4.898,12.775,10.813,12.785,5.67
	c0.129-62.547,2.881-125.987,8.855-189.233c34.365-3.23,68.773-6.084,103.204-8.613c0.084,6.859,0.739,13.539,2.098,19.797
	c8.148,37.563,45.578,28.035,68.713,11.328c15.244-11.01,29.018-24.215,41.943-38.238c10.461-0.555,20.926-1.112,31.391-1.61
	C358.978,247.503,348.703,237.97,344.25,238.185z M238.606,196.679c1.312-2.402,14.83-22.072,17.778-15.355
	c8.699,19.785-7.77,47.837-26.834,53.91c-1.715,0.55-3.338,0.935-4.889,1.187c0.295-1.529,0.56-2.81,0.767-3.756
	C228.153,220.173,232.462,207.906,238.606,196.679z M202.438,238.216c2.226,1.746,4.554,3.135,6.924,4.301
	c-0.12,1.244-0.233,2.486-0.321,3.729c-6.465,0.463-12.927,0.952-19.388,1.44c4.222-2.934,7.106-7.526,8.979-12.926
	C199.819,235.97,201.067,237.138,202.438,238.216z M167.823,249.356c-7.764,0.617-15.525,1.271-23.285,1.929
	c5.074-2.781,9.652-6.921,13.029-11.054C159.926,244.308,163.227,247.552,167.823,249.356z M29.217,262.386
	c27.525-20.678,51.275-45.002,69.455-74.922c1.08-1.777,2.082-3.599,3.117-5.4c-3.416,24.527-6.324,49.146-8.703,73.806
	C71.778,257.89,50.489,260.075,29.217,262.386z M106.965,250.685c0.045-0.031,0.1-0.045,0.141-0.08
	c3.178-2.711,6.121-5.668,8.932-8.752c1.217,4.125,3.686,7.678,7.887,10.271c0.502,0.309,1.016,0.532,1.525,0.782
	c-6.305,0.558-12.604,1.15-18.904,1.732C106.676,253.319,106.831,252.003,106.965,250.685z M274.106,274.649
	c-10.823,8.758-25.942,20.336-40.767,19.39c-12.276-0.781-13.067-21.099-11.432-38.498c26.199-1.855,52.406-3.504,78.615-4.988
	C292.13,259.031,283.382,267.142,274.106,274.649z"/>
</svg>
