<?xml version="1.0" encoding="utf-8"?>
<!-- Generator: Adobe Illustrator 16.0.0, SVG Export Plug-In . SVG Version: 6.00 Build 0)  -->
<!DOCTYPE svg PUBLIC "-//W3C//DTD SVG 1.1//EN" "http://www.w3.org/Graphics/SVG/1.1/DTD/svg11.dtd">
<svg version="1.1" id="Layer_1" xmlns="http://www.w3.org/2000/svg" xmlns:xlink="http://www.w3.org/1999/xlink" x="0px" y="0px"
	 width="98.869px" height="127.042px" viewBox="0 0 98.869 127.042" enable-background="new 0 0 98.869 127.042"
	 xml:space="preserve">
<rect x="18.41" y="32.497" fill="#BAD657" width="62.049" height="62.049"/>
<path d="M95.832,66.306c-1.234,0.061-2.469,0.13-3.703,0.193c2.273-2.604,4.465-5.264,6.606-7.885
	c0.831-1.014-2.474-3.236-3.4-2.104c-2.853,3.486-5.764,6.957-8.836,10.274c-6.692,0.356-13.38,0.761-20.069,1.203
	c2.928-0.97,5.541-3.063,7.125-5.874c2.348-4.171,3.266-11.925-2.061-14.288c-3.396-1.508-5.988,0.978-7.753,3.627
	c-2.526,3.792-4.33,8.704-5.147,13.703c-1.219-0.771-2.049-2.06-2.56-3.575c0.188-2.438-0.067-4.971-0.531-6.926
	c-0.223-0.936-3.28-2.868-3.513-1.268c-0.366,2.514-0.203,5.127,0.6,7.488c-0.316,2.523-1.342,4.813-3.671,6.027
	c-2.089,1.091-2.75-1.529-2.862-4.521c0.539-2.138,0.625-4.455,0.381-6.459c-0.137-1.112-3.281-3.271-3.56-1.58
	c-0.276,1.692-0.546,4.045-0.468,6.406c-0.962,3.356-3.139,6.229-6.792,7.305c-0.11,0.029,1.554-7.033,1.724-7.494
	c0.269-0.727,0.562-1.446,0.863-2.162c0.395-0.814,0.771-1.635,1.119-2.461c0.553-1.325-2.813-3.314-3.4-2.105
	c-0.537,1.103-1.266,2.539-1.947,4.115c-1.015,1.918-2.18,3.766-3.514,5.473c0.961-8.322,2.143-16.615,3.547-24.853
	c4.381-11.634,6.525-24.228,7.905-36.397c0.146-1.271-3.142-3.134-3.56-1.578c-3.135,11.686-5.695,23.604-7.771,35.642
	c-1.776,4.776-3.911,9.416-6.517,13.848C18.246,59.988,9.849,67.667,0.352,73.966c-1.416,0.938,1.848,2.678,2.703,2.58
	c7.52-0.865,15.052-1.652,22.591-2.386c-1.539,16.968-2.254,33.976-2.289,50.75c-0.002,1.363,3.558,3.013,3.561,1.579
	c0.035-17.41,0.803-35.072,2.465-52.68c9.566-0.899,19.146-1.693,28.73-2.397c0.023,1.909,0.206,3.769,0.583,5.513
	c2.269,10.455,12.688,7.804,19.129,3.151c4.244-3.065,8.079-6.741,11.676-10.644c2.912-0.155,5.825-0.313,8.738-0.448
	C99.932,68.904,97.072,66.248,95.832,66.306z M66.422,54.753c0.366-0.668,4.129-6.145,4.949-4.274
	c2.422,5.508-2.163,13.315-7.47,15.007c-0.478,0.154-0.929,0.262-1.36,0.331c0.082-0.427,0.156-0.782,0.213-1.046
	C63.512,61.294,64.712,57.878,66.422,54.753z M56.354,66.318c0.619,0.486,1.268,0.872,1.927,1.197
	c-0.033,0.345-0.065,0.69-0.089,1.037c-1.801,0.129-3.6,0.267-5.398,0.4c1.176-0.816,1.979-2.095,2.5-3.598
	C55.624,65.692,55.973,66.017,56.354,66.318z M46.717,69.417c-2.162,0.172-4.322,0.354-6.481,0.537
	c1.413-0.773,2.686-1.926,3.627-3.076C44.518,68.013,45.438,68.917,46.717,69.417z M8.132,73.046
	c7.663-5.757,14.274-12.528,19.334-20.858c0.301-0.493,0.579-1.002,0.868-1.503c-0.95,6.828-1.761,13.682-2.423,20.547
	C19.979,71.792,14.053,72.403,8.132,73.046z M29.775,69.789c0.013-0.009,0.027-0.013,0.039-0.021
	c0.886-0.756,1.705-1.578,2.486-2.438c0.34,1.147,1.026,2.139,2.196,2.858c0.14,0.087,0.283,0.149,0.424,0.22
	c-1.754,0.153-3.508,0.319-5.262,0.48C29.695,70.522,29.738,70.156,29.775,69.789z M76.305,76.458
	c-3.013,2.438-7.222,5.661-11.349,5.397c-3.417-0.218-3.637-5.873-3.183-10.718c7.295-0.517,14.59-0.977,21.886-1.389
	C81.323,72.112,78.889,74.37,76.305,76.458z"/>
</svg>
